<?xml version="1.0" ?><svg id="Layer_3" style="enable-background:new 0 0 64 64;" version="1.1" viewBox="0 0 64 64" xml:space="preserve" xmlns="http://www.w3.org/2000/svg" xmlns:xlink="http://www.w3.org/1999/xlink"><g><g><rect height="60" style="fill:#603813;" width="60" x="2" y="2"/></g><g><rect height="60" style="fill:#754C24;" width="56" x="2" y="2"/></g><g><rect height="6" style="fill:#911D22;" width="18" x="6" y="44"/></g><g><rect height="6" style="fill:#C1272D;" width="15" x="6" y="44"/></g><g><rect height="6" style="fill:#611417;" width="6" x="6" y="44"/></g><g><rect height="6" style="fill:#911D22;" width="3" x="6" y="44"/></g><g><rect height="24" style="fill:#008E3E;" width="10" x="46" y="6"/></g><g><rect height="24" style="fill:#00BD53;" width="6" x="46" y="6"/></g><g><path d="M43,62h10l1.232-1.232C55.364,59.636,56,58.101,56,56.5v0c0-1.601-0.636-3.136-1.768-4.268L52,50    l-1-4h-6l-1,4l-2.232,2.232C40.636,53.364,40,54.899,40,56.5v0c0,1.601,0.636,3.136,1.768,4.268L43,62z" style="fill:#B3B3B3;"/></g><g><path d="M52,56.5c0-1.601-0.636-3.136-1.768-4.268L48,50l-1-4h-2l-1,4l-2.232,2.232    C40.636,53.364,40,54.899,40,56.5c0,1.601,0.636,3.136,1.768,4.268L43,62h6l1.232-1.232C51.364,59.636,52,58.101,52,56.5z" style="fill:#CCCCCC;"/></g><g><rect height="6" style="fill:#008E3E;" width="24" x="2" y="56"/></g><g><rect height="6" style="fill:#00BD53;" width="21" x="2" y="56"/></g><g><path d="M23,56H2v-6h21c1.657,0,3,1.343,3,3v0C26,54.657,24.657,56,23,56z" style="fill:#BC842C;"/></g><g><path d="M23,53c0-1.657-1.343-3-3-3H2v6h18C21.657,56,23,54.657,23,53z" style="fill:#FBB03B;"/></g><g><polygon points="30,34 2,34 2,30 62,30 62,34 34,34 34,62 30,62   " style="fill:#666666;"/></g><g><polygon points="2,30 2,34 28,34 30,34 30,62 32,62 32,34 34,34 60,34 60,30   " style="fill:#808080;"/></g><g><rect height="20" style="fill:#B65347;" width="6" x="56" y="10"/></g><g><rect height="20" style="fill:#F46F5E;" width="3" x="56" y="10"/></g><g><rect height="6" style="fill:#008E3E;" width="10" x="46" y="24"/></g><g><rect height="6" style="fill:#005F2A;" width="10" x="46" y="24"/></g><g><rect height="6" style="fill:#008E3E;" width="6" x="46" y="24"/></g><g><rect height="18" style="fill:#BC842C;" width="6" x="40" y="12"/></g><g><rect height="18" style="fill:#FBB03B;" width="3" x="40" y="12"/></g><g><rect height="6" style="fill:#416B7A;" width="18" x="14" y="24"/></g><g><rect height="6" style="fill:#62A0B6;" width="15" x="14" y="24"/></g><g><path d="M24,18v6h-3c-1.657,0-3-1.343-3-3v0c0-1.657,1.343-3,3-3H24z" style="fill:#254155;"/></g><g><rect height="6" style="fill:#21394B;" width="12" x="24" y="18"/></g><g><rect height="6" style="fill:#315671;" width="9" x="24" y="18"/></g><g><rect height="24" style="fill:#911D22;" width="6" x="8" y="6"/></g><g><rect height="24" style="fill:#C1272D;" width="3" x="8" y="6"/></g><g><rect height="6" style="fill:#611417;" width="6" x="8" y="6"/></g><g><rect height="6" style="fill:#911D22;" width="3" x="8" y="6"/></g><g><rect height="22" style="fill:#006E34;" width="6" x="2" y="8"/></g><g><rect height="22" style="fill:#009245;" width="3" x="2" y="8"/></g><g><path d="M62,63H2c-0.552,0-1-0.447-1-1V2c0-0.553,0.448-1,1-1h60c0.552,0,1,0.447,1,1v60C63,62.553,62.552,63,62,63z M3,61h58V3H3    V61z"/></g><g><rect height="2" width="60" x="2" y="29"/></g><g><path d="M8,31H2c-0.552,0-1-0.447-1-1V8c0-0.553,0.448-1,1-1h6c0.552,0,1,0.447,1,1v22C9,30.553,8.552,31,8,31z M3,29h4V9H3V29z"/></g><g><path d="M14,31H8c-0.552,0-1-0.447-1-1V6c0-0.553,0.448-1,1-1h6c0.552,0,1,0.447,1,1v24C15,30.553,14.552,31,14,31z M9,29h4V7H9    V29z"/></g><g><path d="M32,31H14c-0.552,0-1-0.447-1-1v-6c0-0.553,0.448-1,1-1h18c0.552,0,1,0.447,1,1v6C33,30.553,32.552,31,32,31z M15,29h16    v-4H15V29z"/></g><g><path d="M36,25H21c-2.206,0-4-1.794-4-4s1.794-4,4-4h15c0.552,0,1,0.447,1,1v6C37,24.553,36.552,25,36,25z M21,19    c-1.103,0-2,0.897-2,2s0.897,2,2,2h14v-4H21z"/></g><g><path d="M46,31h-6c-0.552,0-1-0.447-1-1V12c0-0.553,0.448-1,1-1h6c0.552,0,1,0.447,1,1v18C47,30.553,46.552,31,46,31z M41,29h4V13    h-4V29z"/></g><g><path d="M56,31H46c-0.552,0-1-0.447-1-1V6c0-0.553,0.448-1,1-1h10c0.552,0,1,0.447,1,1v24C57,30.553,56.552,31,56,31z M47,29h8V7    h-8V29z"/></g><g><path d="M62,31h-6c-0.552,0-1-0.447-1-1V10c0-0.553,0.448-1,1-1h6c0.552,0,1,0.447,1,1v20C63,30.553,62.552,31,62,31z M57,29h4V11    h-4V29z"/></g><g><path d="M26,63H2c-0.552,0-1-0.447-1-1v-6c0-0.553,0.448-1,1-1h24c0.552,0,1,0.447,1,1v6C27,62.553,26.552,63,26,63z M3,61h22v-4    H3V61z"/></g><g><path d="M23,57H2c-0.552,0-1-0.447-1-1v-6c0-0.553,0.448-1,1-1h21c2.206,0,4,1.794,4,4S25.206,57,23,57z M3,55h20    c1.103,0,2-0.897,2-2s-0.897-2-2-2H3V55z"/></g><g><path d="M24,51H6c-0.552,0-1-0.447-1-1v-6c0-0.553,0.448-1,1-1h18c0.552,0,1,0.447,1,1v6C25,50.553,24.552,51,24,51z M7,49h16v-4    H7V49z"/></g><g><path d="M53,63H43c-0.265,0-0.52-0.105-0.707-0.293l-1.232-1.232C39.732,60.146,39,58.379,39,56.5s0.732-3.646,2.061-4.975    l2.037-2.037l0.933-3.73C44.141,45.312,44.541,45,45,45h6c0.459,0,0.859,0.312,0.97,0.758l0.933,3.73l2.037,2.037    C56.268,52.854,57,54.621,57,56.5s-0.732,3.646-2.061,4.975l-1.232,1.232C53.52,62.895,53.265,63,53,63z M43.414,61h9.172    l0.939-0.939C54.476,59.109,55,57.845,55,56.5s-0.524-2.609-1.475-3.561l-2.232-2.232c-0.128-0.128-0.219-0.289-0.263-0.465    L50.219,47h-4.438l-0.811,3.242c-0.044,0.176-0.135,0.337-0.263,0.465l-2.232,2.232C41.524,53.891,41,55.155,41,56.5    s0.524,2.609,1.475,3.561L43.414,61z"/></g><g><rect height="2" width="2" x="41" y="37"/></g><g><rect height="2" width="2" x="43" y="39"/></g><g><rect height="2" width="2" x="41" y="41"/></g><g><rect height="2" width="2" x="39" y="39"/></g><g><rect height="2" width="2" x="53" y="37"/></g><g><rect height="2" width="2" x="55" y="39"/></g><g><rect height="2" width="2" x="53" y="41"/></g><g><rect height="2" width="2" x="51" y="39"/></g><g><rect height="2" width="10" x="46" y="23"/></g><g><rect height="6" width="2" x="23" y="18"/></g><g><rect height="6" width="2" x="11" y="44"/></g><g><rect height="2" width="6" x="8" y="11"/></g><g><path d="M34,63h-4c-0.552,0-1-0.447-1-1V35H2v-2h28c0.552,0,1,0.447,1,1v27h2V34c0-0.553,0.448-1,1-1h28v2H35v27    C35,62.553,34.552,63,34,63z"/></g></g></svg>